# xmcd
#
# Track frame offsets:
#	150
#	22479
#	49992
#	73997
#	95376
#	115852
#	136295
#	160672
#	189970
#	210728
#	230030
#	257951
#	273461
#	288769
#	312391
#
# Disc length: 4431 seconds
#
# Revision: 1
# Processed by: cddbd v1.5.1PL2 Copyright (c) Steve Scherf et al.
# Submitted via: audiograbber 1.83.01
#
DISCID=e7114d0f
DTITLE=Micky Modelle - Country Clubland
DYEAR=2006
DGENRE=Country
TTITLE0=Friends In Low Places
TTITLE1=Country Roads
TTITLE2=Is This The Way To Amarillo
TTITLE3=Always On My Mind
TTITLE4=Blanket On The Ground
TTITLE5=That Don´t Impress Me
TTITLE6=Crazy
TTITLE7=Nine To Five
TTITLE8=Rose Garden
TTITLE9=Crystal Chandeliers
TTITLE10=She Believes In Me
TTITLE11=Stand By Your Man
TTITLE12=When You´re In Love
TTITLE13=The Gambler
TTITLE14=Country Megamix  
EXTD=
EXTT0=
EXTT1=
EXTT2=
EXTT3=
EXTT4=
EXTT5=
EXTT6=
EXTT7=
EXTT8=
EXTT9=
EXTT10=
EXTT11=
EXTT12=
EXTT13=
EXTT14=
PLAYORDER=
